<svg width="463" height="482" viewBox="0 0 463 482" fill="none" xmlns="http://www.w3.org/2000/svg">
<path d="M97.351 237.57C110.462 228.376 122.42 220.581 124.004 219.981C125.445 219.582 127.75 219.781 129.047 220.581C130.343 221.38 132.216 223.379 133.225 225.178C134.089 226.977 134.666 230.574 134.233 233.373C133.657 237.371 130.776 240.168 120.547 247.363C112.046 253.359 107.292 257.757 106.86 260.355C106.428 262.553 106.572 265.75 107.292 267.351C107.868 268.95 114.351 275.745 121.699 282.34C133.081 292.733 134.954 295.132 134.954 299.729C134.954 302.928 133.801 306.924 132.36 308.922C131.064 310.921 128.615 312.321 127.03 312.321C125.445 312.321 112.623 301.929 98.6477 289.336C74.2995 267.55 73.0028 265.952 73.291 260.355C73.4351 254.558 74.7318 253.359 97.351 237.57Z" fill="#0F75BD"/>
<path d="M376.914 282.965C363.803 292.158 351.846 299.953 350.261 300.554C348.821 300.952 346.516 300.753 345.218 299.953C343.922 299.155 342.049 297.156 341.041 295.356C340.175 293.558 339.599 289.961 340.031 287.161C340.607 283.164 343.49 280.367 353.718 273.172C362.217 267.175 366.972 262.777 367.404 260.179C367.838 257.981 367.692 254.784 366.972 253.183C366.397 251.585 359.914 244.79 352.566 238.194C341.185 227.801 339.311 225.402 339.311 220.805C339.311 217.607 340.463 213.61 341.905 211.611C343.2 209.613 345.65 208.214 347.235 208.214C348.821 208.214 361.642 218.607 375.616 231.198C399.964 252.984 401.262 254.583 400.974 260.179C400.83 265.977 399.532 267.175 376.914 282.965Z" fill="#0F75BD"/>
<path fill-rule="evenodd" clip-rule="evenodd" d="M150.254 3.67726C147.806 5.82233 146.276 11.3382 146.582 15.9348C146.888 21.1442 153.926 32.789 164.943 46.2721L182.385 68.0294C141.991 108.173 134.953 117.059 134.953 122.575C134.953 128.398 145.358 140.655 179.325 174.67C209.621 204.701 226.146 219.41 231.347 219.716C237.468 220.636 247.872 212.055 283.371 176.815C321.317 139.736 327.744 132.075 327.744 124.108C327.744 116.753 322.846 110.011 303.874 91.3186L280.31 67.7229C301.73 41.0627 310.3 29.4182 313.36 24.515C317.95 16.2412 318.255 14.709 313.973 7.66096C310.606 2.14507 306.628 0 299.284 0C291.021 0 287.654 2.4515 278.168 14.4026C272.047 22.6764 264.092 31.5631 260.725 34.3211C254.604 39.5305 253.993 39.5305 245.118 32.1759C239.917 27.8858 233.796 24.515 231.347 24.515C228.9 24.515 222.167 28.4989 216.658 33.7083L206.867 42.595C175.959 3.37081 171.675 0 164.025 0C158.822 0 152.702 1.53219 150.254 3.67726ZM200.496 93.0606C185.301 108.067 173.207 121.823 173.517 123.386C174.137 125.262 186.541 139.017 201.426 154.024C216.311 169.03 229.956 181.223 231.505 181.223C233.366 181.223 247.012 169.03 261.897 154.024C276.782 139.017 289.185 125.262 289.185 123.386C289.185 121.823 276.782 108.067 261.897 93.0606C247.012 78.054 233.366 65.5487 231.505 65.5487C229.956 65.5487 216.002 78.054 200.496 93.0606Z" fill="#FFCC00"/>
<path fill-rule="evenodd" clip-rule="evenodd" d="M0.0183029 254.782C-0.59368 250.512 14.0945 234.044 51.1212 197.754C83.5576 165.733 105.284 146.521 109.262 146.521C113.24 146.521 135.884 166.953 171.993 202.938C203.206 234.044 229.827 259.355 231.663 259.355C233.499 259.355 260.122 234.044 291.335 202.938C327.444 166.648 350.087 146.521 354.067 146.521C358.044 146.521 378.851 165.123 411.595 197.754C443.726 229.775 462.697 250.817 462.697 254.782C462.697 258.44 444.337 279.178 414.349 309.064C388.031 335.29 365.083 356.942 363.247 356.942C361.411 356.942 356.513 352.977 351.618 348.404C347.028 343.831 343.355 338.951 343.355 337.119C343.355 335.29 361.716 316.078 424.447 253.561L390.786 219.711C372.12 201.108 356.208 186.165 354.985 186.165C353.454 186.165 318.263 220.931 276.034 263.016C234.112 305.404 199.533 341.084 199.533 342.306C199.533 343.831 213.915 344.745 231.663 344.745C249.413 344.745 263.794 343.831 263.794 342.306C263.794 341.084 259.817 336.511 246.964 323.397L257.673 312.723C263.489 306.625 269.302 302.355 270.526 302.66C271.751 303.27 289.194 320.043 347.028 376.765L293.784 429.523C248.801 474.046 239.315 481.976 231.663 481.976C224.014 481.976 214.528 474.046 116.606 376.765L208.715 285.276L109.262 186.165L76.2136 218.186C58.1593 235.873 43.471 252.038 43.471 253.867C43.471 256 60.6072 274.909 81.7215 295.951C102.836 316.992 119.972 335.29 119.972 337.119C119.972 338.951 115.994 343.831 111.404 348.708C106.814 353.284 101.612 356.942 100.082 356.942C98.5518 356.942 75.2955 335.29 48.979 309.064C22.3568 282.532 0.324236 258.136 0.0183029 254.782ZM171.544 382.02C164.223 374.606 164.223 374.31 169.713 368.379C175.203 363.04 179.473 362.446 230.713 362.446C278.902 362.744 286.833 363.336 291.408 367.786C294.457 370.454 296.898 374.31 296.898 375.794C296.591 377.573 294.153 381.131 291.408 384.097C286.526 388.843 279.817 389.437 232.543 389.437C179.778 389.437 179.168 389.139 171.544 382.02ZM204.268 416.92C208.536 421.651 215.854 429.537 220.427 434.271C225 439.316 229.877 443.418 231.096 443.418C232.317 443.418 239.939 436.795 247.864 428.591C255.792 420.39 262.194 412.501 262.194 411.24C262.194 409.979 247.56 408.716 229.573 408.716H196.646L204.268 416.92Z" fill="#FFCC00"/>
</svg>
